<?xml version="1.0" encoding="UTF-8"?><svg id="a" xmlns="http://www.w3.org/2000/svg" viewBox="0 0 113 113"><defs><style>.b{fill:#0067fe;}.c{fill:#e4e4e4;}</style></defs><path class="c" d="M30.62,6.3h51.75c1.73,.68,2.4,1.97,2.27,3.78-.05,.8,0,1.61,0,2.51h1.18c5.72,0,11.43,0,17.15,0,2.68,0,3.72,1.04,3.72,3.74,0,28.87,0,57.74,0,86.62,0,2.69-1.03,3.72-3.72,3.72-30.9,0-61.79-.01-92.69,.03-1.82,0-3.17-.49-3.95-2.18V14.73c.8-1.67,2.14-2.19,3.96-2.17,5.64,.08,11.28,.03,16.92,.03h1.16c0-.91,.05-1.72,0-2.52-.12-1.8,.55-3.1,2.27-3.77ZM100.73,100.74V53.14h-1.13c-5.85,0-11.7,0-17.54,0-2.1,0-3.27-1.17-3.3-3.27-.01-.97,0-1.95,0-2.93h-9.83v6.61c1.02,0,2,0,2.97,0,2.03,.01,3.26,1.15,3.25,2.98-.02,1.77-1.26,2.9-3.23,2.9-10.29,0-20.58,0-30.87,0-1.95,0-3.19-1.16-3.19-2.94,0-1.78,1.24-2.92,3.19-2.94,1,0,2,0,3.01,0v-6.63h-9.81c0,.94,0,1.82,0,2.7-.01,2.42-1.12,3.53-3.53,3.53-5.81,0-11.63,0-17.44,0-.34,0-.68,0-1.01,0v47.6H100.73Zm-22.05-59.83V12.23H34.32v28.69h44.36ZM28.32,18.53H12.28v28.66H28.32V18.53Zm56.38,0v28.66h16.04V18.53h-16.04Zm-21.77,34.98v-6.6h-12.85v6.6h12.85Z"/><path class="c" d="M22.05,75.24c-2.07-.37-3.01-1.28-3.11-2.86-.1-1.62,.8-2.57,3.07-3.21,.17-1.46,.79-2.6,2.38-2.92,1.69-.35,3.19,.62,3.46,2.32,.09,.6,.37,.71,.86,.82,1.53,.32,2.36,1.4,2.34,2.92-.03,1.45-.92,2.57-2.39,2.78-.7,.1-.74,.43-.74,.97,.01,4.96,.02,9.92,0,14.89-.01,2.22-1.75,3.55-3.79,2.97-1.33-.38-2.07-1.47-2.08-3.18-.01-4.77,0-9.53,0-14.3,0-.39,0-.77,0-1.2Z"/><path class="b" d="M90.95,84.97c2.28,.42,3.34,1.66,3.06,3.44-.19,1.27-.96,2.15-2.24,2.39-.62,.11-.84,.37-.96,.97-.28,1.42-1.47,2.31-2.89,2.27-1.43-.04-2.56-.96-2.79-2.4-.08-.51-.26-.7-.76-.8-1.63-.35-2.46-1.38-2.43-2.94,.03-1.48,.9-2.54,2.49-2.79,.69-.11,.64-.49,.64-.96,0-4.93,0-9.86,0-14.79,0-1.8,.87-2.89,2.44-3.15,1.61-.27,3.01,.68,3.33,2.28,.09,.44,.11,.91,.11,1.36,0,4.67,0,9.34,0,14,0,.35,0,.71,0,1.1Z"/><path class="c" d="M43.67,87.08c0,1.34,.02,2.61,0,3.88-.04,1.88-1.21,3.1-2.93,3.09-1.67,0-2.86-1.21-2.93-3.03-.05-1.3,0-2.6,0-3.88-2.45-.84-3.25-1.71-3.1-3.33,.14-1.55,1.04-2.41,3.04-2.77,.02-.31,.05-.66,.06-1,0-3.56-.02-7.11,.01-10.67,.02-2.26,1.66-3.61,3.71-3.11,1.36,.33,2.15,1.38,2.16,2.99,.02,3.56,.02,7.11,0,10.67,0,.78,.09,1.2,1.03,1.33,1.3,.18,2.11,1.42,2.1,2.81,0,1.38-.84,2.48-2.14,2.8-.28,.07-.57,.12-.98,.21Z"/><path class="c" d="M69.49,73.15c0-1.33-.02-2.6,0-3.87,.03-1.88,1.19-3.11,2.91-3.12,1.7,0,2.9,1.23,2.96,3.1,.04,1.27,0,2.54,0,3.88,1.88,.24,3.1,1.15,3.1,3.13,0,1.58-.9,2.4-3.09,2.95,0,.32,0,.66,0,1.01,0,3.52,.02,7.05,0,10.57-.02,2.28-1.63,3.62-3.69,3.14-1.37-.32-2.17-1.37-2.18-2.97-.02-3.52-.03-7.05,0-10.57,0-.86-.1-1.31-1.11-1.47-1.28-.2-2.06-1.48-2.02-2.86,.03-1.33,.86-2.4,2.12-2.72,.31-.08,.63-.13,1-.21Z"/><path class="c" d="M53.56,77.03c0-2.62-.03-5.25,0-7.89,.03-2.07,1.77-3.37,3.74-2.86,1.3,.34,2.11,1.43,2.12,2.93,.02,2.25,0,4.51,0,6.76,0,.36,0,.71,0,1.04,2.38,.74,3.19,1.57,3.12,3.19-.06,1.56-.91,2.39-3.12,2.95,0,1.62,0,3.27,0,4.92,0,.98,.02,1.96,0,2.94-.04,1.78-1.25,3.02-2.93,3.02-1.68,0-2.92-1.23-2.94-3.01-.03-2.61,0-5.22,0-7.82-2.49-.95-3.21-1.71-3.13-3.28,.08-1.51,.87-2.26,3.13-2.9Z"/><path class="b" d="M47.76,24.76c-1.27,0-2.55,.02-3.82,0-1.7-.04-2.88-1.18-2.94-2.78-.06-1.65,.97-2.97,2.66-3.04,2.77-.11,5.55-.1,8.32,0,1.67,.06,2.78,1.43,2.71,3.01-.07,1.62-1.23,2.76-2.93,2.81-1.34,.03-2.68,0-4.02,0Z"/><path class="b" d="M65.17,34.22c-1.27,0-2.55,.03-3.82,0-1.83-.06-3.03-1.22-3.05-2.89-.02-1.66,1.18-2.91,2.99-2.95,2.58-.06,5.16-.06,7.73,0,1.85,.04,2.99,1.23,2.98,2.94,0,1.7-1.18,2.85-3.01,2.91-1.27,.04-2.55,0-3.82,0Z"/><path class="c" d="M20.23,29.46c-1.66-.02-2.92-1.29-2.9-2.94,.02-1.57,1.41-2.93,2.99-2.9,1.61,.03,2.9,1.37,2.88,2.99-.03,1.67-1.28,2.87-2.96,2.85Z"/><path class="c" d="M20.28,36.25c1.64,0,2.92,1.29,2.91,2.92-.01,1.66-1.26,2.91-2.92,2.9-1.65,0-2.93-1.27-2.94-2.91-.01-1.59,1.33-2.91,2.95-2.91Z"/><path class="c" d="M89.8,39.15c.01-1.67,1.26-2.89,2.94-2.88,1.66,0,2.92,1.26,2.93,2.91,0,1.56-1.39,2.94-2.96,2.93-1.6-.01-2.92-1.35-2.9-2.96Z"/><path class="c" d="M92.73,29.48c-1.63,0-2.93-1.29-2.93-2.91,0-1.66,1.25-2.91,2.91-2.91,1.65,0,2.93,1.26,2.95,2.9,.02,1.59-1.31,2.92-2.94,2.92Z"/></svg>