<?xml version="1.0" encoding="UTF-8"?><svg id="a" xmlns="http://www.w3.org/2000/svg" viewBox="0 0 113 113"><defs><style>.b{fill:#0067fe;}.c{fill:#e4e4e4;}</style></defs><path class="c" d="M55.07,106.98c-.47-.11-.95-.21-1.42-.33-6.07-1.51-9.83-5.35-11.42-11.37-.1-.38-.43-.83-.77-.98-3.62-1.68-5.42-4.52-5.5-8.47-.05-2.56,.07-5.13-.14-7.68-.43-5.1-2.59-9.49-5.92-13.35-5.98-6.93-8.8-15-8.71-24.15,.14-13.51,8.86-26.48,21.34-31.66,16.92-7.02,35.63-.83,44.87,14.97,4.01,6.85,5.39,14.29,4.36,22.17-.9,6.92-3.64,13.03-8.12,18.36-2.28,2.71-4.29,5.6-5.2,9.06-.58,2.23-.87,4.56-1.09,6.86-.17,1.79,0,3.61-.04,5.41-.07,3.96-1.87,6.8-5.5,8.47-.32,.15-.66,.54-.75,.89-1.72,6.52-5.81,10.47-12.5,11.65-.12,.02-.24,.1-.35,.15h-3.15Zm16.42-29.77c.36-1.61,.65-3.16,1.06-4.67,1.28-4.72,3.96-8.64,7-12.41,5.48-6.79,7.56-14.57,6.24-23.21-.96-6.3-3.72-11.75-8.25-16.19-6.66-6.53-14.75-9.49-24.03-8.48-11.15,1.21-19.34,7.05-23.8,17.28-4.92,11.28-3.15,21.94,4.71,31.46,2.86,3.46,5.13,7.21,6.33,11.55,.42,1.53,.7,3.1,1.05,4.68h29.68Zm-.08,6h-29.54c0,.88,0,1.7,0,2.51,.02,2.16,1.18,3.32,3.37,3.33,3.21,0,6.43,0,9.64,0,4.46,0,8.92,0,13.38,0,1.76,0,3.02-1.1,3.13-2.74,.07-1.01,.01-2.02,.01-3.09Zm-23,11.76c1.13,3.7,5.05,6.37,8.79,6.06,3.54-.29,7.26-3.24,7.61-6.06h-16.4Z"/><path class="b" d="M6.21,43.74c.79-1.7,2.12-2.31,3.96-2.19,1.57,.11,3.14,0,4.72,.03,1.83,.02,3.14,1.26,3.14,2.95,0,1.68-1.3,2.93-3.13,2.95-1.57,.02-3.15-.07-4.72,.02-1.83,.11-3.18-.49-3.96-2.19v-1.58Z"/><path class="b" d="M13.78,31.85c-.36-.2-1.14-.45-1.69-.95-1.41-1.28-2.74-2.64-4.05-4.02-1.27-1.33-1.26-3.14-.03-4.31,1.19-1.14,2.94-1.09,4.24,.17,1.39,1.35,2.76,2.71,4.09,4.12,.9,.95,1.08,2.09,.53,3.28-.52,1.12-1.46,1.64-3.08,1.71Z"/><path class="b" d="M106.23,25.05c-.18,.36-.38,1.13-.85,1.65-1.37,1.5-2.82,2.93-4.3,4.32-1.2,1.13-2.98,1.05-4.08-.06-1.11-1.13-1.18-2.87-.05-4.09,1.39-1.48,2.84-2.91,4.31-4.32,.91-.87,2.03-1.04,3.19-.53,1.13,.49,1.67,1.42,1.78,3.02Z"/><path class="b" d="M13.94,57.21c1.41,.06,2.34,.55,2.88,1.61,.53,1.05,.55,2.19-.24,3.05-1.55,1.69-3.17,3.33-4.87,4.86-1.02,.92-2.7,.7-3.7-.25-1.03-.98-1.33-2.7-.38-3.75,1.57-1.76,3.28-3.39,5-5,.37-.35,1.01-.41,1.31-.52Z"/><path class="b" d="M99.46,57.19c.4,.22,1.2,.48,1.77,1,1.39,1.25,2.68,2.6,3.98,3.95,1.29,1.33,1.31,3.12,.1,4.31-1.17,1.15-2.94,1.13-4.24-.11-1.39-1.34-2.76-2.71-4.1-4.11-.9-.94-1.1-2.07-.57-3.27,.5-1.13,1.43-1.66,3.05-1.76Z"/><path class="b" d="M101.1,47.48c-.95,0-1.9,.03-2.86,0-1.7-.05-2.96-1.31-2.97-2.92-.01-1.66,1.27-2.94,3.02-2.97,1.94-.03,3.87-.03,5.81,0,1.7,.03,2.96,1.3,2.97,2.92,.01,1.62-1.24,2.91-2.92,2.97-1.02,.04-2.04,0-3.05,0Z"/><path class="c" d="M80.26,40.85c0-.13,0-.07,0,0,.08,2.17-1,3.59-2.8,3.67-1.8,.08-3.02-1.26-3.1-3.41-.36-9.55-7.72-16.94-17.31-17.23-2.7-.08-3.8-2.35-3.19-3.95,.46-1.22,1.5-2.03,2.87-1.99,8.44,.24,15.07,3.83,19.77,10.85,2.39,3.57,3.57,7.57,3.77,12.05Z"/></svg>