<?xml version="1.0" encoding="UTF-8"?><svg id="a" xmlns="http://www.w3.org/2000/svg" viewBox="0 0 256 256"><defs><style>.b{fill:#0067fe;}</style></defs><circle class="b" cx="152.26" cy="145.85" r="25.31"/><path d="M190.14,196.82c-13.03,7.03-27.65,10.45-44.61,10.45-47.31,0-81.64-33.34-81.64-79.26S97.6,48.74,145.87,48.74c24.63,0,45.08,8.48,62.52,25.92l3.02,3.02,33.85-33.03-2.71-3.08C219.41,15.26,185.27,1.36,143.83,1.36,66.71,1.36,10.74,54.62,10.74,128c0,35.47,13.4,67.76,37.74,90.92,24.21,23.03,57.83,35.72,94.67,35.72,16.21,0,32.14-2.28,46.99-6.54,18.45-5.3,35.23-13.67,48.83-24.66l1.6-1.3-.11-52.81h-50.32v27.48Z"/><rect class="b" x="150.85" y="120.53" width="89.62" height="50.63"/></svg>