<?xml version="1.0" encoding="UTF-8"?><svg id="a" xmlns="http://www.w3.org/2000/svg" viewBox="0 0 113 113"><defs><style>.b{fill:#0067fe;}.c{fill:#e4e4e4;}</style></defs><path class="c" d="M5.04,10.38c.52-1.43,1.11-2.79,2.35-3.8,2.03-1.66,4.31-1.59,6.72-1.22,11.4,1.77,22.8,3.49,34.21,5.23,3.83,.58,7.67,1.15,11.5,1.77,3.65,.59,5.74,3.08,5.75,6.8,.02,7.7,0,15.4,0,23.1,0,.4,0,.8,0,1.31,2.07,.42,4.1,.84,6.14,1.24,10.58,2.1,21.17,4.19,31.75,6.31,3.29,.66,5.31,3.16,5.32,6.56,0,14.49,0,28.97,0,43.46,0,3.55-1.74,5.8-5.2,6.77-.1,.03-.18,.09-.27,.14H10.51c-1.68-.47-3.24-1.17-4.21-2.69-.51-.8-.85-1.72-1.26-2.58,0-30.8,0-61.6,0-92.4ZM22.31,103.74c0-.52,0-.92,0-1.32,0-5.84,.07-11.68-.02-17.52-.07-4.3,3.08-7.28,7.15-7.13,3.91,.14,7.83,.03,11.75,.03,4.45,0,7.05,2.59,7.06,7.03,0,5.87,0,11.75,0,17.62,0,.39,0,.79,0,1.22h12.92c.02-.38,.05-.71,.05-1.03,0-27.75,0-55.5,0-83.26,0-1.93-.52-2.58-2.38-2.86-5-.77-10-1.53-15-2.28-10.57-1.59-21.14-3.18-31.72-4.77-1.61-.24-2.69,.61-2.76,2.26-.03,.84,0,1.69,0,2.53,0,28.83,0,57.66,0,86.5,0,2.25,.72,2.97,2.97,2.97,2.57,0,5.13,0,7.7,0h2.3Zm43.33-55.72v55.72h1.17c11.55,0,23.1,0,34.65,0,2.31,0,3.02-.71,3.02-3.03,0-14.12,0-28.23,0-42.35,0-2.24-.45-2.77-2.64-3.2-8.8-1.74-17.6-3.48-26.4-5.22-3.24-.64-6.48-1.27-9.79-1.92Zm-21.7,55.66v-1.04c0-5.94,0-11.88,0-17.82,0-1.94-.76-2.71-2.68-2.71-3.95,0-7.9,0-11.84,0-2.04,0-2.74,.69-2.74,2.73,0,5.94,0,11.88,0,17.82,0,.33,.03,.65,.05,1.03h17.22Z"/><path class="b" d="M24.56,25.93c1.38,0,2.76-.02,4.14,0,1.38,.03,2.29,.93,2.26,2.18-.03,1.2-.94,2.09-2.25,2.11-2.83,.02-5.66,.03-8.49,0-1.3-.01-2.21-.94-2.21-2.14,0-1.22,.88-2.11,2.2-2.14,1.45-.03,2.9,0,4.35,0Z"/><path class="b" d="M24.46,43.2c-1.38,0-2.76,.02-4.14,0-1.37-.02-2.31-.92-2.31-2.16,0-1.25,.91-2.12,2.31-2.13,2.8-.02,5.59-.02,8.39,0,1.34,.01,2.23,.87,2.25,2.09,.03,1.24-.9,2.17-2.26,2.2-1.41,.03-2.83,0-4.25,0Z"/><path class="b" d="M24.5,56.17c-1.35,0-2.7,0-4.04,0-1.47-.01-2.42-.85-2.45-2.12-.02-1.29,.9-2.17,2.37-2.18,2.73-.02,5.46-.02,8.19,0,1.47,0,2.41,.88,2.4,2.15,0,1.27-.96,2.13-2.42,2.14-1.35,.01-2.7,0-4.04,0Z"/><path class="b" d="M24.44,69.14c-1.35,0-2.7,.01-4.04,0-1.44-.02-2.4-.91-2.38-2.18,.01-1.25,.92-2.1,2.33-2.11,2.76-.02,5.53-.02,8.29,0,1.41,.01,2.32,.86,2.33,2.11,.01,1.28-.94,2.17-2.38,2.18-1.38,.02-2.76,0-4.14,0Z"/><path class="c" d="M46.04,30.23c-1.35,0-2.7,.01-4.04,0-1.46-.02-2.37-.88-2.35-2.2,.02-1.28,.88-2.09,2.32-2.1,2.76-.02,5.52-.02,8.29,0,1.39,.01,2.32,.89,2.32,2.13,0,1.27-.95,2.15-2.4,2.17-1.38,.02-2.76,0-4.14,0Z"/><path class="c" d="M46.16,38.9c1.38,0,2.76-.02,4.14,0,1.37,.03,2.31,.94,2.29,2.16-.02,1.24-.96,2.12-2.34,2.13-2.76,.02-5.52,.02-8.29,0-1.4,0-2.3-.87-2.31-2.13-.01-1.29,.85-2.11,2.26-2.17,.07,0,.13,0,.2,0,1.35,0,2.69,0,4.04,0Z"/><path class="c" d="M46.11,51.87c1.38,0,2.76-.02,4.14,0,1.39,.02,2.32,.89,2.33,2.12,.01,1.27-.95,2.17-2.39,2.17-2.73,.02-5.46,.02-8.19,0-1.46,0-2.37-.88-2.36-2.19,.01-1.28,.88-2.08,2.32-2.11,1.38-.02,2.76,0,4.14,0Z"/><path class="c" d="M46.14,64.83c1.38,0,2.76-.02,4.14,0,1.38,.03,2.31,.92,2.3,2.15-.01,1.24-.94,2.13-2.32,2.14-2.76,.02-5.52,.02-8.29,0-1.41,0-2.31-.86-2.33-2.12-.02-1.33,.85-2.14,2.35-2.18,.07,0,.13,0,.2,0,1.31,0,2.63,0,3.94,0Z"/><path class="c" d="M85.08,64.84c1.38,0,2.76-.02,4.14,0,1.37,.03,2.3,.95,2.27,2.18-.03,1.21-.94,2.1-2.25,2.11-2.83,.03-5.66,.03-8.49,0-1.32-.01-2.19-.91-2.2-2.14,0-1.25,.83-2.11,2.18-2.14,1.45-.03,2.9,0,4.35,0Z"/><path class="c" d="M85.06,82.1c-1.38,0-2.76,.01-4.14,0-1.46-.02-2.37-.88-2.36-2.19,.01-1.28,.87-2.1,2.31-2.11,2.76-.02,5.52-.02,8.29,0,1.4,.01,2.32,.88,2.33,2.12,.01,1.28-.94,2.16-2.39,2.18-1.35,.02-2.69,0-4.04,0Z"/><path class="c" d="M85.09,90.77c1.38,0,2.76-.02,4.14,0,1.33,.03,2.23,.88,2.26,2.09,.03,1.24-.9,2.19-2.26,2.2-2.83,.02-5.66,.03-8.49,0-1.31-.01-2.18-.92-2.18-2.15,0-1.25,.83-2.1,2.19-2.13,1.45-.03,2.9,0,4.35,0Z"/></svg>