<?xml version="1.0" encoding="UTF-8"?><svg id="a" xmlns="http://www.w3.org/2000/svg" viewBox="0 0 113 113"><defs><style>.b{fill:#0067fe;}.c{fill:#e4e4e4;}</style></defs><path class="c" d="M56.92,4.63c1.11,.46,1.5,1.32,1.46,2.47-.04,1.13,0,2.27,0,3.53,1.16,0,2.25-.01,3.34,0,1.35,.02,2.19,.7,2.23,1.8,.04,1.12-.85,1.88-2.23,1.91-1.03,.02-2.07,.02-3.1,.03-.03,0-.06,.02-.23,.1v1.03c0,3.04,.02,6.07-.02,9.11,0,.74,.2,1.3,.66,1.87,4.15,5.11,8.27,10.26,12.43,15.37,.72,.88,1.04,1.77,1.03,2.92-.05,5.52,0,11.04-.05,16.56,0,.9,.29,1.32,1.08,1.69,3.26,1.57,6.46,3.26,9.73,4.81,1.31,.62,1.83,1.5,1.77,2.92-.07,1.86,.02,3.73-.04,5.59-.02,.74,.25,1.09,.91,1.39,3.36,1.52,6.66,3.16,10.04,4.64,1.43,.63,2.01,1.5,2,3.08-.06,6.69-.03,13.39-.03,20.08v1.37c1.91,0,3.76,0,5.61,0,.44,0,.91,0,1.33,.11,.91,.24,1.4,.88,1.36,1.82-.03,.9-.56,1.47-1.41,1.69-.36,.09-.75,.09-1.13,.09-31.43,0-62.86,0-94.29,0-.28,0-.55,.01-.83-.02-1.01-.13-1.68-.83-1.72-1.76-.04-.98,.62-1.79,1.67-1.9,.85-.09,1.72-.04,2.58-.04,1.31,0,2.61,0,4.06,0v-1.26c0-6.76,.03-13.52-.02-20.29-.01-1.49,.55-2.33,1.9-2.93,3.4-1.5,6.74-3.14,10.13-4.68,.66-.3,.93-.64,.91-1.39-.05-1.83,.05-3.66-.04-5.48-.07-1.5,.47-2.42,1.87-3.08,3.24-1.52,6.41-3.21,9.64-4.76,.79-.38,1.09-.79,1.08-1.69-.05-5.62-.06-11.25,.01-16.87,0-.79,.34-1.72,.82-2.33,4.15-5.25,8.36-10.45,12.58-15.64,.46-.57,.67-1.13,.66-1.87-.04-3.38-.02-6.75-.02-10.27-1.22,0-2.38,.04-3.54,0-1.62-.06-2.59-1.56-1.71-2.75,.36-.49,1.16-.83,1.81-.92,1.08-.15,2.19-.04,3.44-.04,0-1.21,.03-2.37,0-3.53-.04-1.16,.34-2.02,1.46-2.47h.83Zm24.31,102.25c.02-.3,.05-.5,.05-.7,0-11.45,0-22.91,.02-34.36,0-.63-.26-.9-.78-1.16-3.37-1.66-6.71-3.38-10.09-5.01-1.21-.58-1.73-1.39-1.71-2.75,.05-5.86,.03-11.73,0-17.59,0-.5-.2-1.1-.51-1.48-3.67-4.61-7.38-9.2-11.09-13.79-.18-.23-.4-.43-.68-.71-.14,.19-.21,.3-.3,.41-3.83,4.75-7.67,9.5-11.47,14.27-.27,.33-.37,.88-.37,1.32-.02,5.9-.03,11.8,0,17.7,0,1.22-.44,1.99-1.55,2.53-3.38,1.64-6.71,3.37-10.09,5.01-.67,.33-.95,.7-.95,1.48,.03,11.25,.02,22.49,.02,33.74,0,.36,.03,.72,.05,1.06h16.62c0-.44,0-.82,0-1.19,0-5.04,.03-10.07-.01-15.11-.02-2.34,.99-4.04,2.95-5.2,2.4-1.43,4.99-1.69,7.68-1.07,3.88,.9,5.59,3.05,5.59,7.01,0,4.83,0,9.66,0,14.49v1.11h16.62Zm-53.27,0v-25.37c-.37,.14-.65,.24-.93,.37-2.47,1.15-4.91,2.33-7.4,3.43-.66,.29-.81,.66-.81,1.33,.02,6.41,.01,12.83,.01,19.24v1.01h9.12Zm66.12,0c.04-.2,.08-.29,.08-.39,0-6.72,.01-13.45-.02-20.17,0-.31-.31-.74-.6-.89-1.19-.62-2.42-1.16-3.64-1.72-1.58-.74-3.17-1.47-4.84-2.25v25.42h9.02Zm-33.19-.02v-1.06c0-5.03-.03-10.06,.02-15.09,.01-1.23-.5-1.96-1.54-2.42-1.93-.86-3.88-.85-5.8,.02-.99,.45-1.5,1.16-1.48,2.35,.05,5.07,.02,10.13,.02,15.2,0,.33,.04,.66,.05,1.01h8.72Z"/><path class="b" d="M56.53,57.89c-4.46,.02-8.1-3.61-8.12-8.06-.01-4.44,3.63-8.11,8.07-8.13,4.43-.02,8.1,3.64,8.11,8.08,.02,4.46-3.6,8.09-8.07,8.11Zm-.05-3.71c2.45,.02,4.4-1.92,4.41-4.37,0-2.4-1.91-4.36-4.29-4.39-2.44-.04-4.43,1.9-4.46,4.33-.02,2.46,1.89,4.41,4.34,4.43Z"/></svg>