<?xml version="1.0" encoding="UTF-8"?><svg id="a" xmlns="http://www.w3.org/2000/svg" viewBox="0 0 113 113"><defs><style>.b{fill:#0067fe;}.c{fill:#e4e4e4;}</style></defs><path class="c" d="M109.21,42.99c-.42,2.1-.71,4.25-1.29,6.31-1.44,5.17-4.33,9.6-7.4,13.91-.55,.78-1.5,.93-2.2,.45-.71-.48-.88-1.4-.35-2.22,.96-1.49,1.95-2.96,2.95-4.42,8.65-12.67,5.41-29.19-2.2-38.13-4.49-5.27-10.19-8.64-16.71-10.72-5.75-1.83-11.67-2.49-17.7-2.29-.41,.01-.82,.08-1.38,.14,.57,.81,1.06,1.5,1.55,2.19,1.86,2.6,2.35,5.35,1.43,8.48-1.12,3.79-2.09,7.64-2.91,11.5-1.11,5.18-.51,10.23,1.69,15.07,.08,.19,.18,.36,.17,.34,5.41-.84,10.72-1.66,16.02-2.51,.35-.06,.72-.37,.95-.67,1.56-2.05,3.03-4.16,4.63-6.17,1.92-2.4,4.24-4.3,7.46-4.45,1.2-.06,2.52,.19,3.62,.67,2.04,.87,2.95,3.2,2.38,5.45-.68,2.7-2.41,4.62-4.92,5.56-2.19,.82-4.54,1.21-6.84,1.7-1.46,.31-2.95,.44-4.43,.68-.28,.05-.63,.18-.8,.4-1.84,2.44-3.64,4.9-5.48,7.39,1.92,1.68,3.24,3.69,3.4,6.19,.1,1.46-.26,2.94-.38,4.41-.03,.33-.02,.81,.18,.98,3.41,2.92,7.05,5.51,10.97,7.8,.94-1.52,1.82-3.01,2.76-4.46,.47-.73,1.18-.98,1.99-.59,.71,.34,1.04,.95,.85,1.72-.11,.42-.41,.8-.62,1.19-1.07,1.99-2.24,3.92-3.17,5.97-1.25,2.76-1.67,5.71-1.66,8.74,.02,4.73,0,9.46,0,14.19,0,1.72-.23,2-1.92,2.43-4.21,1.06-8.42,2.12-12.62,3.18-.2,.05-.4,.11-.61,.14-1.02,.14-1.73-.29-1.91-1.16-.19-.88,.24-1.6,1.23-1.86,2.35-.62,4.71-1.2,7.07-1.79,1.65-.42,3.31-.8,4.94-1.27,.28-.08,.65-.52,.66-.81,.06-1.56,.03-3.12,.03-4.84-1.32,.32-2.55,.6-3.78,.91-8.72,2.2-17.42,4.48-26.17,6.55-3.25,.77-5.07,2.78-4.51,6.7,3.1-.78,6.18-1.55,9.27-2.32,2.09-.52,4.17-1.07,6.26-1.58,1.21-.3,2.03,.07,2.29,.98,.27,.96-.29,1.74-1.53,2.06-5.79,1.47-11.58,2.92-17.38,4.37-1.1,.27-2.06-.25-2.09-1.26-.05-1.87-.09-3.77,.16-5.61,.31-2.34,1.7-4.08,3.74-5.24,.59-.34,.84-.67,.82-1.37-.05-1.98-.02-3.96-.02-6.14-.44,.18-.78,.31-1.1,.46-3.07,1.41-6.19,2.64-9.58,3.06-2.24,.28-4.28-.16-6.17-1.36-3.55-2.25-6.15-5.4-8.35-8.9-1.18-1.89-.63-4.14,1.06-5.77,1.55-1.49,3.14-2.96,4.54-4.59,2.23-2.61,3.7-5.61,4.12-9.07,.35-2.89-.79-4.51-3.64-5.08-3.1-.62-6.21-1.18-9.3-1.79-4.39-.87-6.25-3.85-4.18-8.14,.44-.9,.23-1.47-.41-2.18-.94-1.02-1.83-2.11-2.53-3.3-1.79-2.99-1.1-5.97,1.94-7.65,3-1.66,6.08-3.24,9.28-4.46,3.48-1.33,4.72-4.03,5.51-7.23l-.31,.07c-.25-.66-.72-1.32-.69-1.97,.03-.93,.85-1.2,1.72-1.34,.32-.05,.66-.55,.82-.91,1.74-4.01,4.13-7.55,7.48-10.4,2.08-1.77,4.41-3.15,6.94-4.17,1.13-.46,1.98-.2,2.37,.71,.38,.9-.02,1.69-1.17,2.17-5.71,2.36-9.71,6.46-12.3,12.01-.09,.19-.16,.38-.22,.54,1.47,.47,3,.77,4.35,1.43,1.48,.72,2.85,1.7,4.17,2.7,.91,.7,.91,1.67,.24,2.37-.67,.69-1.53,.66-2.39-.14-1.87-1.75-4.13-2.64-6.61-3.08-.71-.13-1.13,0-1.34,.82-.34,1.27-.78,2.52-1.29,3.73-.98,2.34-2.62,4.03-4.99,5.06-2.68,1.16-5.31,2.42-7.95,3.66-.75,.35-1.49,.76-2.19,1.21-1.25,.81-1.58,1.87-.76,3.11,.89,1.36,1.91,2.66,3.04,3.82,1.06,1.08,1.33,2.1,.64,3.44-.36,.7-.59,1.48-.85,2.24-.46,1.3-.13,2.14,1.2,2.48,2.59,.65,5.21,1.17,7.83,1.72,.85,.18,1.72,.27,2.57,.42,4.35,.79,6.71,4.03,6.17,8.42-.5,4.09-2.17,7.68-4.82,10.78-1.42,1.66-3.03,3.16-4.59,4.69-1.06,1.04-1.24,1.65-.31,2.77,1.73,2.08,3.48,4.15,5.38,6.07,1.96,1.98,4.4,2.44,7.13,1.79,3.45-.82,6.64-2.24,9.73-3.92,1.94-1.06,2.97-.46,2.97,1.76,0,2.67,0,5.34,0,8.15,2.6-.65,5.08-1.28,7.56-1.9,7-1.76,14-3.55,21.02-5.25,1.05-.25,1.26-.72,1.25-1.69-.04-3.33-.2-6.68,.7-9.95,.29-1.07,.63-2.13,.92-3.13-3.93-2.77-7.86-5.54-11.65-8.21-1.57,.92-3.11,2.01-4.79,2.76-2.57,1.13-5.29,1.11-7.95,.24-.78-.25-1.17-.1-1.61,.55-.84,1.24-1.72,2.45-2.68,3.59-2.37,2.81-6.54,3.31-9.52,1.21-2.93-2.07-3.85-6.05-2.13-9.19,.17-.3,.35-.61,.58-.87,.59-.67,1.31-.8,2.05-.31,.74,.49,.88,1.19,.52,2.01-.31,.69-.72,1.38-.83,2.11-.27,1.73,.72,3.37,2.28,4.07,1.6,.72,3.43,.32,4.66-1.02,.19-.2,.36-.43,.52-.65,.78-1.06,1.56-2.12,2.39-3.26-3.68-2.68-5.39-6.31-5.3-10.78,.09-4.44,1.95-8.03,5.23-10.66-.79-2.71-1.7-5.27-2.27-7.9-.95-4.37-.31-8.73,.71-13.01,.81-3.41,1.76-6.79,2.66-10.18,.3-1.14,.22-2.26-.44-3.2-1.21-1.73-2.5-3.41-3.8-5.07-.48-.62-1.04-1.15-.73-2.02,.31-.86,1.05-1.04,1.83-1.14,1.1-.15,2.19-.3,3.29-.45,2.16,0,4.31,0,6.47,0,.34,.06,.67,.15,1.01,.18,5.98,.43,11.76,1.72,17.21,4.23,10.62,4.9,17.63,12.85,20.22,24.4,.46,2.05,.67,4.16,1,6.25v5.22Zm-42.63,18.13c-.18-.24-.28-.38-.39-.51-2.98-3.87-1.21-9.43,3.52-10.65,1.39-.35,2.94-.05,4.41-.06,.27,0,.68,.03,.8-.13,1.26-1.64,2.48-3.32,3.78-5.08-.31,0-.45-.02-.58,0-2.81,.42-5.62,.91-8.44,1.25-6.99,.84-10.13,6.53-9.71,11.56,.25,2.96,1.51,5.34,4.05,7.09l2.56-3.47Zm.39,4.75c3.57,1.48,8.61-.5,10.28-3.93,1.3-2.69,.46-6.43-1.75-7.62-2.83,3.84-5.67,7.68-8.52,11.55Zm18.97-25.83l.13,.28c.65-.09,1.3-.12,1.94-.27,1.95-.45,3.93-.83,5.82-1.47,1.45-.49,2.51-1.61,3-3.14,.44-1.36-.12-2.25-1.52-2.49-2.19-.37-3.9,.62-5.29,2.1-1.47,1.56-2.73,3.31-4.07,4.98Zm-17.39,18.42l4.07-5.52c-1.68-.39-3.2,.15-4.11,1.42-.86,1.18-.88,2.67,.04,4.11Z"/><path class="b" d="M11.76,80.96c0-.5,0-.95,0-1.4,0-4.34,0-8.69,0-13.03,0-1.87,1.07-2.53,2.71-1.67,1.6,.84,3.19,1.7,4.77,2.56,1.07,.58,1.42,1.44,.96,2.29-.46,.85-1.35,1.02-2.43,.46-.91-.47-1.82-.96-2.87-1.52,0,.49,0,.83,0,1.16,0,4.41,0,8.83,0,13.24,0,1.7-.35,3.31-1.21,4.79-1.54,2.64-4.8,4.01-7.6,3.19-1.92-.56-3.24-1.78-3.61-3.77-.37-1.97,.33-3.64,1.89-4.89,1.95-1.56,4.22-1.82,6.61-1.52,.23,.03,.46,.07,.8,.11Z"/><path class="c" d="M45.93,39.87c-1.61-.3-2.98-.51-4.32-.83-.56-.13-1.09-.45-1.57-.78-.84-.59-1.02-1.54-.51-2.27,.53-.76,1.35-.8,2.29-.31,1.99,1.03,4.09,1.21,6.22,.45,.94-.33,1.73-.16,2.15,.61,.42,.77,.23,1.74-.68,2.11-1.19,.49-2.49,.72-3.58,1.01Z"/></svg>